# xmcd CD database file
#
# Track frame offsets:
#	150
#	28873
#	54893
#	80439
#	91643
#	114657
#	138982
#	158693
#	176706
#	198683
#	215345
#	257143
#	276124
#	294468
#	313011
#
# Disc length: 4432 seconds
#
# Revision: 1
# Processed by: cddbd v1.4PL0 Copyright (c) Steve Scherf et al.
# Submitted via: CDex 1.40Release
#
DISCID=d3114e0f
DTITLE=Van Morrison - THE PHILOSOPHER'S STONE  part II
DYEAR=1900
DGENRE=Blues
TTITLE0=The Street only Knew Your Name
TTITLE1=John Henry
TTITLE2=Western Plain
TTITLE3=Joyous sound
TTITLE4=I Have Finally Come To Realise
TTITLE5=Flamingoes Fly
TTITLE6=Stepping out Queen Part 2
TTITLE7=Bright Side of The Road
TTITLE8=Street Theory
TTITLE9=Real Real Gone
TTITLE10=Showbusiness
TTITLE11=For Mr. Thomas
TTITLE12=Crazy Jane on God
TTITLE13=Song Of Being A Child
TTITLE14=High Spirit
EXTD=ID3G: 0
EXTT0=
EXTT1=
EXTT2=
EXTT3=
EXTT4=
EXTT5=
EXTT6=
EXTT7=
EXTT8=
EXTT9=
EXTT10=
EXTT11=
EXTT12=
EXTT13=
EXTT14=
PLAYORDER=
